<svg xmlns="http://www.w3.org/2000/svg" viewBox="0 0 96 96"><g fill="#fff" stroke="#fff" stroke-width="12" stroke-linejoin="round"><path d="M58 8 L52 40"/><path d="M28 38 L68 38 L60 70 L52 74 L52 82 L64 86 L32 86 L44 82 L44 74 L36 70 Z"/><circle cx="48" cy="32" r="16"/><circle cx="50" cy="14" r="7"/></g>
<path d="M60 6 L52 40" stroke="#3B1273" stroke-width="9" stroke-linecap="round"/><path d="M60 6 L52 40" stroke="#E8384F" stroke-width="4" stroke-dasharray="5 5"/>
<path d="M28 38 L68 38 L60 70 L52 74 L52 82 L64 86 L32 86 L44 82 L44 74 L36 70 Z" fill="#FFB3C6" stroke="#3B1273" stroke-width="4" stroke-linejoin="round"/>
<path d="M32 46 L64 46" stroke="#fff" stroke-width="3" opacity=".7"/><path d="M38 44 L42 66" stroke="#fff" stroke-width="4" stroke-linecap="round" opacity=".8"/>
<path d="M28 40 C26 28 36 22 42 26 C44 18 56 18 58 26 C64 22 72 30 68 40 Z" fill="#FFFBF2" stroke="#3B1273" stroke-width="4" stroke-linejoin="round"/>
<path d="M50 20 C50 14 54 10 58 8" stroke="#3E8F4E" stroke-width="3" fill="none" stroke-linecap="round"/>
<circle cx="48" cy="20" r="7" fill="#E8384F" stroke="#3B1273" stroke-width="3.5"/><circle cx="46" cy="18" r="2" fill="#fff"/></svg>
