<svg xmlns="http://www.w3.org/2000/svg" viewBox="0 0 48 48"><g fill="#fff" stroke="#fff" stroke-width="7" stroke-linejoin="round" stroke-linecap="round"><rect x="8" y="6" width="32" height="38" rx="4"/></g><rect x="8" y="6" width="32" height="38" rx="4" fill="#E9846A" stroke="#3B1273" stroke-width="3" stroke-linejoin="round"/><rect x="13" y="11" width="22" height="28" rx="2" fill="#FBF4E6" stroke="#3B1273" stroke-width="2"/><path d="M24 36 q-1 -8 0 -16" stroke="#6E9A5A" stroke-width="2.5" fill="none" stroke-linecap="round"/><path d="M24 31 q-6 -1 -7 -5 q5 0 7 5z M24 27 q6 -1 7 -5 q-5 0 -7 5z" fill="#86B06A" stroke="#3B1273" stroke-width="1.5" stroke-linejoin="round"/><g fill="#F28BA8" stroke="#3B1273" stroke-width="1.5"><circle cx="24" cy="13.5" r="3.4"/><circle cx="20.2" cy="16.5" r="3.4"/><circle cx="27.8" cy="16.5" r="3.4"/><circle cx="21.6" cy="21" r="3.4"/><circle cx="26.4" cy="21" r="3.4"/></g><circle cx="24" cy="17.6" r="2.6" fill="#F2C14E" stroke="#3B1273" stroke-width="1.5"/><path d="M11 12 v8" stroke="#fff" stroke-width="2.5" stroke-linecap="round" opacity=".75"/></svg>
