<svg xmlns="http://www.w3.org/2000/svg" viewBox="0 0 48 48">
  <g fill="none" stroke="#3B1273" stroke-width="3" stroke-linecap="round">
    <path d="M17 13c-3-3 3-5 0-9M24 12c-3-3 3-5 0-9M31 13c-3-3 3-5 0-9"/>
  </g>
  <g stroke="#3B1273" stroke-width="3" stroke-linejoin="round">
    <path d="M7 22h34l-3 18a4 4 0 0 1-4 3H14a4 4 0 0 1-4-3z" fill="#D9A066"/>
    <rect x="5" y="18" width="38" height="6" rx="3" fill="#9FDDE8"/>
    <path d="M24 29c-5-4-8 0-6 4 1 3 6 6 6 6s5-3 6-6c2-4-1-8-6-4z" fill="#F28DAA"/>
  </g>
  <g stroke="#B57A45" stroke-width="2" opacity=".7"><path d="M10 31h4M34 31h4"/></g>
  <path d="M9 20h8" stroke="#fff" stroke-width="2" stroke-linecap="round"/>
  <ellipse cx="21" cy="31" rx="1.6" ry="1" fill="#fff"/>
</svg>
