<svg xmlns="http://www.w3.org/2000/svg" viewBox="0 0 96 96">
  <path d="M48 76L10 48a40 40 0 0 1 76 0z" fill="#fff" stroke="#fff" stroke-width="12" stroke-linejoin="round"/>
  <path d="M44 74h8v14h-8z" fill="#fff" stroke="#fff" stroke-width="12" stroke-linejoin="round"/>
  <g stroke="#3B1273" stroke-width="4" stroke-linejoin="round">
    <path d="M48 76L10 48a40 40 0 0 1 76 0z" fill="#FFB3CF"/>
    <path d="M48 76L10 48a40 40 0 0 1 10-16zM48 76L32 18a40 40 0 0 1 16-2zM48 76L64 18a40 40 0 0 1 12 6zM48 76L86 48a40 40 0 0 0-2-8z" fill="#FF7FB0"/>
    <path d="M44 74h8v14h-8z" fill="#B5E03A"/>
  </g>
  <circle cx="48" cy="74" r="5" fill="#B5E03A" stroke="#3B1273" stroke-width="3"/>
  <path d="M24 34a36 36 0 0 1 12-10" stroke="#fff" stroke-width="4" stroke-linecap="round" fill="none"/>
</svg>
