<svg xmlns="http://www.w3.org/2000/svg" viewBox="0 0 96 96"><path d="M55.4 51.1 L81.3 61.8 M51.1 55.4 L61.8 81.3 M44.9 55.4 L34.2 81.3 M40.6 51.1 L14.7 61.8 M40.6 44.9 L14.7 34.2 M44.9 40.6 L34.2 14.7 M51.1 40.6 L61.8 14.7 M55.4 44.9 L81.3 34.2" stroke="#fff" stroke-width="12" stroke-linejoin="round" stroke-linecap="round"/><circle cx="48" cy="48" r="26" fill="none" stroke="#fff" stroke-width="12" stroke-linejoin="round" stroke-linecap="round"/><circle cx="82.2" cy="62.2" r="5" fill="#fff" stroke="#fff" stroke-width="12" stroke-linejoin="round" stroke-linecap="round"/><circle cx="62.2" cy="82.2" r="5" fill="#fff" stroke="#fff" stroke-width="12" stroke-linejoin="round" stroke-linecap="round"/><circle cx="33.8" cy="82.2" r="5" fill="#fff" stroke="#fff" stroke-width="12" stroke-linejoin="round" stroke-linecap="round"/><circle cx="13.8" cy="62.2" r="5" fill="#fff" stroke="#fff" stroke-width="12" stroke-linejoin="round" stroke-linecap="round"/><circle cx="13.8" cy="33.8" r="5" fill="#fff" stroke="#fff" stroke-width="12" stroke-linejoin="round" stroke-linecap="round"/><circle cx="33.8" cy="13.8" r="5" fill="#fff" stroke="#fff" stroke-width="12" stroke-linejoin="round" stroke-linecap="round"/><circle cx="62.2" cy="13.8" r="5" fill="#fff" stroke="#fff" stroke-width="12" stroke-linejoin="round" stroke-linecap="round"/><circle cx="82.2" cy="33.8" r="5" fill="#fff" stroke="#fff" stroke-width="12" stroke-linejoin="round" stroke-linecap="round"/>
<path d="M55.4 51.1 L81.3 61.8 M51.1 55.4 L61.8 81.3 M44.9 55.4 L34.2 81.3 M40.6 51.1 L14.7 61.8 M40.6 44.9 L14.7 34.2 M44.9 40.6 L34.2 14.7 M51.1 40.6 L61.8 14.7 M55.4 44.9 L81.3 34.2" stroke="#3B1273" stroke-width="8" stroke-linecap="round"/><path d="M55.4 51.1 L81.3 61.8 M51.1 55.4 L61.8 81.3 M44.9 55.4 L34.2 81.3 M40.6 51.1 L14.7 61.8 M40.6 44.9 L14.7 34.2 M44.9 40.6 L34.2 14.7 M51.1 40.6 L61.8 14.7 M55.4 44.9 L81.3 34.2" stroke="#B9773E" stroke-width="3.5" stroke-linecap="round"/><circle cx="82.2" cy="62.2" r="4.5" fill="#B9773E" stroke="#3B1273" stroke-width="3" stroke-linejoin="round" stroke-linecap="round"/><circle cx="62.2" cy="82.2" r="4.5" fill="#B9773E" stroke="#3B1273" stroke-width="3" stroke-linejoin="round" stroke-linecap="round"/><circle cx="33.8" cy="82.2" r="4.5" fill="#B9773E" stroke="#3B1273" stroke-width="3" stroke-linejoin="round" stroke-linecap="round"/><circle cx="13.8" cy="62.2" r="4.5" fill="#B9773E" stroke="#3B1273" stroke-width="3" stroke-linejoin="round" stroke-linecap="round"/><circle cx="13.8" cy="33.8" r="4.5" fill="#B9773E" stroke="#3B1273" stroke-width="3" stroke-linejoin="round" stroke-linecap="round"/><circle cx="33.8" cy="13.8" r="4.5" fill="#B9773E" stroke="#3B1273" stroke-width="3" stroke-linejoin="round" stroke-linecap="round"/><circle cx="62.2" cy="13.8" r="4.5" fill="#B9773E" stroke="#3B1273" stroke-width="3" stroke-linejoin="round" stroke-linecap="round"/><circle cx="82.2" cy="33.8" r="4.5" fill="#B9773E" stroke="#3B1273" stroke-width="3" stroke-linejoin="round" stroke-linecap="round"/>
<circle cx="48" cy="48" r="26" fill="none" stroke="#3B1273" stroke-width="10"/><circle cx="48" cy="48" r="26" fill="none" stroke="#B9773E" stroke-width="5"/>
<circle cx="48" cy="48" r="11" fill="#E0B04A" stroke="#3B1273" stroke-width="4" stroke-linejoin="round" stroke-linecap="round"/><circle cx="48" cy="48" r="4" fill="#28427E" stroke="#3B1273" stroke-width="2"/>
<path d="M30 34 q6 -8 14 -9" fill="none" stroke="#fff" stroke-width="3" stroke-linecap="round"/></svg>