<svg xmlns="http://www.w3.org/2000/svg" viewBox="0 0 48 48">
  <g fill="#fff" stroke="#fff" stroke-width="6" stroke-linejoin="round">
    <ellipse cx="21" cy="24" rx="16" ry="12" transform="rotate(-12 21 24)"/>
    <path d="M37 30c-3-4-9-1-6 4l6 7 6-7c3-5-3-8-6-4z"/>
  </g>
  <g stroke="#3B1273" stroke-width="2.6" stroke-linejoin="round" stroke-linecap="round">
    <ellipse cx="21" cy="24" rx="16" ry="12" fill="#B99CF2" transform="rotate(-12 21 24)"/>
    <path d="M37 30c-3-4-9-1-6 4l6 7 6-7c3-5-3-8-6-4z" fill="#FF9FCF"/>
  </g>
  <ellipse cx="21" cy="24" rx="14" ry="3.4" fill="none" stroke="#fff" stroke-width="2.6" transform="rotate(-12 21 24)"/>
  <ellipse cx="13" cy="17" rx="3.2" ry="1.6" fill="#fff" transform="rotate(-30 13 17)"/>
  <ellipse cx="33.5" cy="32" rx="1.4" ry=".9" fill="#fff"/>
</svg>
