<svg xmlns="http://www.w3.org/2000/svg" viewBox="0 0 48 48"><g fill="#fff" stroke="#fff" stroke-width="7" stroke-linejoin="round" stroke-linecap="round"><ellipse cx="24" cy="38" rx="17" ry="7"/><ellipse cx="23" cy="27" rx="12" ry="5.5"/><ellipse cx="25" cy="18" rx="8" ry="4.5"/><path d="M22 14 q-3 -7 2 -9 q1 4 4 3 q2 4 -2 6z"/></g><ellipse cx="24" cy="38" rx="17" ry="7" fill="#A39EB2" stroke="#3B1273" stroke-width="3" stroke-linejoin="round" stroke-linecap="round"/><ellipse cx="23" cy="27" rx="12" ry="5.5" fill="#BDB6AE" stroke="#3B1273" stroke-width="3" stroke-linejoin="round" stroke-linecap="round"/><ellipse cx="25" cy="18" rx="8" ry="4.5" fill="#C2BDCB" stroke="#3B1273" stroke-width="3" stroke-linejoin="round" stroke-linecap="round"/><path d="M22 14 q-3 -7 2 -9 q1 4 4 3 q2 4 -2 6z" fill="#8FB07A" stroke="#3B1273" stroke-width="3" stroke-linejoin="round" stroke-linecap="round"/><path d="M13 35 q4 -3 9 -3 M17 25 q3 -2 6 -2" stroke="#fff" stroke-width="2.2" fill="none" stroke-linecap="round" opacity=".75"/></svg>
